HIERARCHY
ROOT hip
{
	OFFSET 0.000000 0.000000 0.000000 
	CHANNELS 6 Xposition Yposition Zposition Xrotation Zrotation Yrotation
	JOINT abdomen
	{
		OFFSET 0.000000 3.402643 0.000000 
		CHANNELS 3 Xrotation Zrotation Yrotation
		JOINT chest
		{
			OFFSET 0.000000 8.438565 -0.680529 
			CHANNELS 3 Xrotation Zrotation Yrotation
			JOINT neck
			{
				OFFSET 0.000000 10.207942 -0.272212 
				CHANNELS 3 Xrotation Zrotation Yrotation
				JOINT head
				{
					OFFSET 0.000000 3.130431 0.000000 
					CHANNELS 3 Xrotation Zrotation Yrotation
					End Site
					{
						OFFSET 0.000000 3.130435 0.000000 
					}
				}
			}
			JOINT lCollar
			{
				OFFSET 3.470700 6.669187 -0.816635 
				CHANNELS 3 Yrotation Zrotation Xrotation
				JOINT lShldr
				{
					OFFSET 3.198488 0.000000 0.000000 
					CHANNELS 3 Zrotation Yrotation Xrotation
					JOINT lForeArm
					{
						OFFSET 10.139888 0.000000 0.000000 
						CHANNELS 3 Yrotation Zrotation Xrotation
						JOINT lHand
						{
							OFFSET 8.370511 0.000000 0.000000 
							CHANNELS 3 Zrotation Yrotation Xrotation
							End Site
							{
								OFFSET 4.083176 0.000000 0.000000 
							}
						}
					}
				}
			}
			JOINT rCollar
			{
				OFFSET -3.470700 6.669187 -0.816635 
				CHANNELS 3 Yrotation Zrotation Xrotation
				JOINT rShldr
				{
					OFFSET -3.198488 0.000000 0.000000 
					CHANNELS 3 Zrotation Yrotation Xrotation
					JOINT rForeArm
					{
						OFFSET -10.139888 0.000000 0.000000 
						CHANNELS 3 Yrotation Zrotation Xrotation
						JOINT rHand
						{
							OFFSET -8.370511 0.000000 0.000000 
							CHANNELS 3 Zrotation Yrotation Xrotation
							End Site
							{
								OFFSET -4.083176 0.000000 0.000000 
							}
						}
					}
				}
			}
		}
	}
	JOINT lThigh
	{
		OFFSET 5.308129 -1.633274 1.361059 
		CHANNELS 3 Xrotation Zrotation Yrotation
		JOINT lShin
		{
			OFFSET -2.041588 -20.007561 0.000000 
			CHANNELS 3 Xrotation Zrotation Yrotation
			JOINT lFoot
			{
				OFFSET 0.000000 -19.190928 -1.224953 
				CHANNELS 3 Xrotation Yrotation Zrotation
				End Site
				{
					OFFSET 0.000000 -2.449906 4.627600 
				}
			}
		}
	}
	JOINT rThigh
	{
		OFFSET -5.308129 -1.633274 1.361059 
		CHANNELS 3 Xrotation Zrotation Yrotation
		JOINT rShin
		{
			OFFSET 2.041588 -20.007561 0.000000 
			CHANNELS 3 Xrotation Zrotation Yrotation
			JOINT rFoot
			{
				OFFSET 0.000000 -19.190928 -1.224953 
				CHANNELS 3 Xrotation Yrotation Zrotation
				End Site
				{
					OFFSET 0.000000 -2.449906 4.627600 
				}
			}
		}
	}
}
MOTION
Frames: 11
Frame Time: 0.033333
4.402591 52.717682 -10.856029 3.681640 -4.921875 37.958984 16.855467 -1.699219 1.904297 -7.441407 0.703125 3.183594 -1.240234 0.869141 -11.611180 15.820313 2.812500 -11.073739 21.923828 14.033204 0.625000 -3.769531 -46.113281 -34.384762 -88.388672 -2.792969 -26.494141 15.771484 -11.318358 -2.949219 -28.066406 -9.912109 0.419922 -74.931641 38.632813 -89.960938 77.392578 3.681641 -73.897110 -16.572266 9.902344 -2.791288 -33.180218 18.054319 7.985354 52.823303 -0.402560 -3.035506 20.405281 -16.145123 -1.770418 -26.461975 -12.430022 -8.031104 47.379448 0.341799 2.720351 19.945343 4.821162 5.117294 
4.151552 55.203663 -11.331028 2.812500 -4.228516 37.772720 21.787109 -1.494141 1.767323 -7.978516 0.537109 2.988373 2.109375 3.681617 -11.063893 12.822266 2.109375 -10.908137 20.136721 14.599609 0.642070 -5.546875 -45.273438 -37.138672 -89.462891 -2.763672 -25.966326 16.835938 -12.890625 -3.537333 -29.345703 -9.218750 0.401955 -73.701172 38.027344 -92.347496 77.958984 3.642578 -70.713516 -16.064453 10.458985 -2.761897 -39.700333 19.994740 11.468552 65.253189 0.413693 -3.714231 21.711998 -24.712568 1.777326 -30.687599 -14.009798 -11.350574 58.439476 -0.546616 3.139224 24.556404 15.628238 0.234430 
3.854605 56.923744 -11.914808 1.572266 -2.822265 37.255863 28.115236 -1.630859 1.552456 -8.857422 0.361328 2.793030 5.791016 5.800781 -10.888672 8.964845 1.757813 -10.898138 18.066406 16.455078 0.712891 -6.494141 -43.867188 -41.748043 -89.785156 -2.792969 -25.976564 14.687501 -13.232422 -3.273718 -30.175779 -9.853516 0.294640 -71.718750 37.041016 -95.453102 77.939453 3.779297 -66.650391 -16.464844 10.927733 -2.949219 -48.967205 22.591812 12.867759 84.204010 1.748888 -4.058072 12.994670 -26.321365 -1.949192 -38.220325 -15.936266 -11.028400 77.381943 -1.777333 3.269000 21.041512 20.624880 -0.623835 
3.652149 57.975315 -12.409678 0.000000 -0.537109 36.210983 34.814453 -2.216797 0.888294 -9.736328 0.546875 2.587984 10.019532 6.855469 -10.701960 5.449219 1.582031 -10.898168 16.699219 19.150389 0.888672 -7.236329 -42.900391 -45.869144 -89.150391 -2.744141 -25.976097 15.312500 -14.218750 -3.508256 -31.044920 -11.689453 0.441431 -68.740234 35.673828 -98.968918 77.226563 3.691406 -63.740864 -16.562502 11.708984 -3.320313 -58.387455 25.360571 13.123515 104.216408 3.083887 -3.829576 -1.267845 -19.458605 -7.855145 -47.204948 -17.723724 -7.730631 98.595375 -3.358867 3.605407 13.707954 23.985853 1.525434 
3.614376 58.520279 -12.704649 -1.767578 1.757813 34.980770 41.005859 -3.066406 -0.186069 -10.078124 0.732422 2.050902 13.710938 6.679688 -10.556643 2.109375 2.109375 -11.073858 16.035154 21.347654 1.113281 -7.031250 -42.031250 -51.230465 -87.773438 -2.773438 -26.845230 15.107422 -15.380858 -3.830714 -32.060551 -13.388672 0.576172 -66.601563 34.023438 -102.392578 76.250000 3.632813 -62.167965 -16.982422 12.343750 -3.494004 -67.378304 28.189871 13.228925 121.986946 3.920534 -3.319263 -10.882739 -13.018123 -9.678684 -55.323605 -18.805475 -3.809550 116.185616 -4.228239 2.989274 11.187736 29.186569 1.521504 
3.720254 58.717972 -12.803902 -3.515625 3.691406 33.760391 45.605469 -3.398438 -1.152923 -10.078124 0.732422 1.699340 16.699221 6.152344 -10.711844 -0.537109 2.812500 -11.259766 15.986329 22.998047 1.168059 -6.220703 -41.767578 -56.373692 -86.406250 -2.832031 -27.558592 14.453126 -16.132814 -3.850370 -33.095707 -14.843750 0.605469 -64.609375 32.734371 -105.566406 75.673828 3.701171 -60.986958 -17.421875 11.132813 -3.357488 -75.552582 31.061583 11.554079 135.191269 4.299791 -2.838267 -11.428958 -12.962525 -9.971832 -62.298714 -18.973091 -0.616535 130.284332 -5.116713 2.051907 12.682026 33.398300 -0.092167 
3.926198 58.676479 -12.768223 -4.228463 4.746035 32.872223 48.085934 -3.769531 -1.953125 -9.902344 0.898438 1.006013 18.623047 5.273438 -11.248932 -2.119127 3.339823 -11.786612 15.810548 24.101564 1.226481 -6.044922 -41.875000 -59.794926 -85.732422 -2.753906 -26.865238 14.189453 -15.478517 -3.625653 -33.242188 -16.201172 0.673828 -62.246098 31.953127 -107.255859 75.839844 3.564453 -60.947876 -17.480469 9.990234 -2.998047 -79.011299 32.615749 9.518647 139.419281 4.917793 -2.538601 -7.303492 -17.208544 -9.520758 -65.543343 -18.993574 0.468047 135.562149 -5.292749 2.122492 17.391542 34.960213 -3.354593 
4.181887 58.436829 -12.639334 -4.052734 4.921875 32.354347 48.095703 -3.496094 -2.431641 -9.726563 1.074219 0.478699 19.335938 4.921875 -11.942521 -2.822265 3.339844 -12.489664 15.419922 24.599611 1.206872 -6.396484 -42.324219 -60.175785 -86.171875 -2.832031 -26.327642 14.970704 -14.414064 -3.488759 -32.548828 -17.207031 0.800782 -60.146481 32.636719 -107.641220 77.099609 3.662109 -60.381489 -18.173826 9.599609 -3.025714 -77.368042 33.102100 8.519814 136.602066 4.591953 -2.643603 -6.591000 -20.306356 -9.493653 -66.363953 -18.973898 -0.786315 135.209305 -5.292646 2.142291 21.156912 34.577805 -5.481571 
4.476624 57.947189 -12.443964 -2.646484 3.867188 32.168629 45.986328 -3.115234 -2.529828 -9.726563 1.074219 0.302917 18.808594 4.746094 -12.645677 -2.646484 2.988281 -13.183084 14.599609 24.658201 1.138504 -7.343750 -43.564453 -58.300781 -86.953125 -2.783203 -26.142101 13.945312 -13.310546 -3.066406 -30.742186 -17.832031 0.774473 -57.841797 34.541016 -105.673828 78.779297 3.720703 -58.018208 -18.466797 8.935546 -2.879343 -70.596230 32.100197 11.554604 127.612785 4.292159 -3.197860 -14.890698 -16.261354 -11.660270 -63.734844 -17.918373 -3.937357 126.584633 -4.941055 2.188218 19.890511 31.195047 -3.357376 
4.835749 57.132942 -12.183862 -0.712891 2.285156 31.640623 42.109375 -2.500000 -2.041441 -9.902344 1.074219 0.127136 17.226564 4.218750 -13.700454 -1.240234 2.812500 -13.886239 13.574219 23.955076 1.099551 -9.531250 -45.410156 -51.715942 -88.330078 -2.753906 -25.263206 13.544922 -13.017579 -2.880859 -28.349609 -17.597658 0.793968 -55.449219 38.134766 -101.253738 80.996094 3.642578 -52.792969 -18.593748 8.271484 -2.693906 -65.285568 31.527010 13.167912 114.948860 3.423830 -3.478909 -10.139032 -18.065544 -10.319937 -58.818802 -16.680281 -6.650401 112.503609 -4.253562 3.144058 16.495329 26.343081 -0.120964 
5.293314 55.923191 -11.852977 1.406250 0.527344 30.937553 37.871094 -1.884610 -1.553063 -10.253905 1.083984 0.117372 14.755860 3.164063 -14.950633 0.703125 2.978516 -14.941407 12.128906 22.324219 1.070510 -13.828125 -47.656250 -41.210938 -89.726563 -2.783203 -24.218752 12.753906 -14.248047 -3.010216 -25.517576 -17.246092 0.657192 -52.089844 44.208984 -95.481476 84.248047 3.447266 -47.129204 -18.906248 7.607421 -2.537770 -59.040707 30.544777 15.218442 100.198708 2.585905 -3.820243 -1.883031 -21.684713 -7.935889 -54.128464 -15.468020 -8.870367 96.685852 -3.007727 3.262245 14.435249 18.563953 2.310493 
